<svg width="200" height="200" viewBox="0 0 200 200" xmlns="http://www.w3.org/2000/svg" role="img" aria-label="DraftPort icon">
  <defs>
    <linearGradient id="tile" x1="36" y1="20" x2="164" y2="180" gradientUnits="userSpaceOnUse">
      <stop offset="0" stop-color="#263043"/>
      <stop offset="1" stop-color="#111827"/>
    </linearGradient>
    <linearGradient id="needle" x1="71" y1="139" x2="145" y2="61" gradientUnits="userSpaceOnUse">
      <stop offset="0" stop-color="#38BDF8"/>
      <stop offset="1" stop-color="#22D3EE"/>
    </linearGradient>
  </defs>
  <rect x="14" y="14" width="172" height="172" rx="42" fill="url(#tile)"/>
  <path d="M62 42H122L150 70V154C150 162 144 168 136 168H62C54 168 48 162 48 154V56C48 48 54 42 62 42Z" fill="#F8FAFC"/>
  <path d="M122 42V66C122 70 126 74 130 74H150L122 42Z" fill="#D7DEE8"/>
  <path d="M73 128L145 55L124 132L103 111L73 128Z" fill="url(#needle)"/>
  <path d="M73 128L103 111L124 132L85 141C78 143 70 135 73 128Z" fill="#0E7490"/>
  <circle cx="104" cy="112" r="8" fill="#111827"/>
  <path d="M66 78H106" stroke="#94A3B8" stroke-width="8" stroke-linecap="round"/>
  <path d="M66 98H91" stroke="#CBD5E1" stroke-width="8" stroke-linecap="round"/>
</svg>
